<svg width="52" height="52" viewBox="0 0 52 52" fill="none" xmlns="http://www.w3.org/2000/svg">
<circle cx="26" cy="26" r="26" fill="#0D0D0D"/>
<path d="M38.0851 8.98575L40.8301 11.6071L42.3623 12.9803C42.7101 11.7731 42.9368 10.4908 42.9368 9.23539C42.9368 8.98868 43.0818 8.27767 42.9325 8.08965C42.7709 7.88619 41.9559 8.0882 41.7239 8.12008C40.5135 8.28642 39.2093 8.49917 38.0851 8.98575ZM18.1678 21.2815H18.2316L19.6998 19.8459C19.9189 19.6317 20.1658 19.2925 20.4659 19.1878C20.7125 19.1018 21.0466 19.2199 21.2958 19.2577C21.9335 19.3544 22.5739 19.4257 23.2109 19.5288C23.8015 19.6245 24.5945 19.6342 25.1261 19.917C25.493 20.1123 25.7733 20.4893 26.0779 20.7634C26.9565 21.5541 27.7639 22.4154 28.6371 23.2107C29.9103 24.3703 31.4755 25.5491 32.5312 26.8988H32.7227L33.6803 25.9002C33.974 27.3809 34.329 28.8495 34.613 30.3316C34.712 30.8481 35.0447 31.6234 34.9431 32.1416C34.8374 32.6811 33.9979 33.2701 33.6165 33.6393C33.4837 33.7679 33.1914 33.9531 33.1646 34.1486C33.1188 34.4827 34.0836 35.1573 34.3187 35.3872H34.3825L37.5744 32.2041L38.913 30.8933L38.916 30.1444L38.8537 28.3343L38.7417 23.5284L38.685 22.2801L37.8936 21.2815C39.7731 20.3661 41.0541 17.9937 41.6052 16.101C41.7527 15.5942 42.1337 14.6849 41.9407 14.1662C41.8137 13.825 41.4052 13.5426 41.1494 13.2924C40.5421 12.6986 39.9047 12.1377 39.298 11.5448C38.7748 11.0334 38.2361 10.5435 37.7021 10.0443C37.4898 9.84586 37.2459 9.49625 36.936 9.44899C36.5146 9.3847 35.8407 9.79844 35.4678 9.97071C34.0418 10.6292 32.6989 11.4962 31.656 12.6682C31.3113 13.0555 30.9282 13.919 30.475 14.1522C29.9692 14.4125 29.0108 14.2588 28.4456 14.2966L24.0408 14.5975C23.441 14.6379 22.5564 14.5643 21.998 14.7656C21.6221 14.9011 21.368 15.3295 21.1017 15.6017C20.4898 16.2275 19.877 16.861 19.2529 17.4742C18.6556 18.061 18.0712 18.6633 17.5112 19.2842C17.3542 19.4581 16.9681 19.7167 16.9681 19.9708C16.9681 20.3763 17.8869 21.0068 18.1678 21.2815ZM39.2342 18.0983V18.1607C38.6908 18.6921 38.1819 19.2522 37.6383 19.7835C37.4835 19.9348 37.2432 20.2699 36.9999 20.2699C36.5784 20.2699 35.836 19.3074 35.5291 19.0239C34.1329 17.7345 32.8041 16.3678 31.446 15.04C31.6854 14.7076 31.9906 14.3982 32.2784 14.1037C32.5199 13.8568 32.7546 13.608 32.9889 13.3548C33.1455 13.1856 33.3725 12.8785 33.6108 12.8218C33.8922 12.755 34.5301 13.5021 34.6304 13.7292C34.7379 13.9729 34.6247 14.3385 34.6436 14.6031C34.6876 15.2171 34.9857 15.7994 35.4687 16.1968C35.9493 16.5923 36.5069 16.8155 37.1275 16.8944C37.3971 16.9286 37.701 16.8645 37.9575 16.966C38.4506 17.1612 38.8648 17.7372 39.2342 18.0983ZM37.0637 13.004C38.7501 12.6656 39.4054 15.1838 37.7021 15.5687C36.0136 15.9502 35.3708 13.3437 37.0637 13.004ZM26.9135 15.789L26.3728 16.7764L24.7431 16.9124L21.2958 17.1621C21.5282 16.769 21.9587 16.2468 22.3811 16.0403C22.7374 15.8661 23.2696 16.0017 23.6578 15.9656C24.7383 15.8651 25.8269 15.789 26.9135 15.789ZM31.635 18.6191C34.3207 18.3627 34.8128 22.551 32.1482 22.831C31.7305 22.8749 31.2591 22.866 30.8715 22.6951C28.8315 21.7952 29.4953 18.8233 31.635 18.6191ZM24.7431 22.4049V22.4673C26.1154 23.809 27.5194 25.1194 28.8925 26.4619C29.5362 27.0913 30.299 28.0817 31.1268 28.4591L31.829 27.7102C31.4662 27.2065 30.9322 26.8332 30.4885 26.3995C29.4342 25.3692 28.3507 24.3718 27.2966 23.3411C26.8817 22.9356 26.1539 21.9439 25.5729 21.8023C25.2767 21.7301 24.9254 22.2266 24.7431 22.4049ZM22.7002 24.4646V24.527C22.9033 24.7256 23.5314 25.1537 23.4898 25.4633C23.4121 26.0421 22.4525 26.2564 22.3882 26.8988C22.3293 27.4881 22.9088 27.8694 23.4663 27.6639C23.9492 27.4858 24.4537 26.9259 24.7431 26.5243H24.8069C24.9968 26.7879 25.6332 27.1939 25.6332 27.5229C25.6332 28.1448 24.4077 28.5137 24.3241 29.2081C24.2559 29.774 24.9378 30.1619 25.4452 29.9732C25.9726 29.7771 26.5948 29.0264 26.9135 28.584H26.9774C27.1118 28.769 27.5483 29.0425 27.5483 29.273C27.5483 29.7488 26.6114 30.1632 26.4478 30.6437C26.2855 31.1202 26.7364 31.6038 27.2327 31.5654C27.5597 31.5401 27.8368 31.2961 28.0566 31.079C28.3355 30.8038 28.5673 30.4953 28.8925 30.2692C29.2637 30.9892 30.4851 29.6248 30.3128 29.2705C29.9997 28.6271 29.0935 28.0693 28.5733 27.5829C27.6826 26.7502 26.844 25.8646 25.9562 25.0288C25.3363 24.4453 24.6029 23.9079 24.1047 23.2163C23.5315 23.3736 23.0793 24.0404 22.7002 24.4646ZM18.8062 24.4355C18.3789 24.535 18.1175 24.9091 17.8313 25.2029C17.3307 25.7168 16.8034 26.2012 16.3047 26.7171C15.0733 27.9911 13.749 29.2233 12.4431 30.4241C11.7089 31.0992 10.8116 31.7737 10.2246 32.5786C9.79275 33.1705 10.2379 33.8663 10.9541 33.8232C11.8162 33.7712 12.8079 32.3888 13.3799 31.8296C14.6369 30.6006 15.892 29.3238 17.2102 28.1577C18.03 27.4324 19.1406 26.614 19.7478 25.7073C20.1787 25.0638 19.5548 24.2612 18.8062 24.4355ZM37.5744 24.4646L37.5754 28.4591L37.6 30.2068L36.6807 31.2054C36.6807 30.0112 36.6946 28.7773 36.6111 27.5854C36.5682 26.9727 36.3694 26.0521 36.5915 25.4633C36.7363 25.0793 37.2415 24.6939 37.5744 24.4646ZM12.1032 26.4967C11.4734 26.6553 10.2291 27.854 10.0382 28.4591C9.81231 29.1756 10.6344 29.6612 11.2733 29.4932C11.884 29.3325 13.093 28.1604 13.2549 27.5854C13.4392 26.9309 12.7526 26.3333 12.1032 26.4967ZM18.9977 29.5544C18.624 29.6337 18.3614 29.9551 18.1039 30.2068L16.508 31.7671C15.16 33.085 13.8039 34.3984 12.4281 35.6885C11.6803 36.3895 10.7622 37.0624 10.1519 37.8838C9.73022 38.4512 10.2819 39.1759 10.9541 39.1124C11.3183 39.0781 11.6059 38.7433 11.8478 38.5079L13.3799 37.01C14.6794 35.7399 15.9909 34.4588 17.3261 33.223C18.1387 32.4709 19.1394 31.7243 19.791 30.8309C20.2075 30.2598 19.752 29.3944 18.9977 29.5544ZM23.1471 30.5537C22.6866 30.6078 22.3679 31.031 22.0618 31.3302C21.2891 32.0858 20.4681 32.8183 19.7475 33.6218C17.4107 36.2268 14.6104 38.4938 12.1032 40.9421C11.4762 41.5544 10.5786 42.1255 10.1248 42.877C9.79781 43.4186 10.3286 43.9656 10.8902 43.9937C11.3931 44.0188 11.7161 43.564 12.0393 43.2517C12.7988 42.518 13.5814 41.8062 14.3375 41.0669C16.6143 38.8409 18.9547 36.6775 21.232 34.451C22.0823 33.6196 23.0615 32.8531 23.8357 31.9544C24.3217 31.3902 23.986 30.4552 23.1471 30.5537ZM29.7862 34.1852C28.905 34.514 28.1189 35.7476 27.4233 36.3753C25.8551 37.7903 24.337 39.2794 22.8279 40.7549C22.142 41.4255 21.2584 42.0408 20.6939 42.8145C20.249 43.4246 20.8573 44.1062 21.5512 43.9861C21.922 43.9219 22.2503 43.559 22.5087 43.313C23.0134 42.8324 23.5253 42.3535 24.0408 41.8839C25.6803 40.3908 27.3078 38.8714 28.8925 37.3221C29.5031 36.725 30.43 36.1115 30.8709 35.3872C31.276 34.7215 30.5089 33.9156 29.7862 34.1852ZM24.36 34.5596C23.5054 34.5721 22.4999 36.02 21.9342 36.5731C19.8267 38.6335 17.5165 40.5572 15.4974 42.6956C15.0253 43.1956 15.1748 43.9039 15.9334 43.9886C16.8694 44.0931 17.8368 42.6986 18.4231 42.128C20.5153 40.0923 22.8866 38.2435 24.833 36.0713C25.3281 35.5187 25.3592 34.5451 24.36 34.5596Z" fill="#00C3A0"/>
</svg>
